<svg width="343" height="185" viewBox="0 0 343 185" fill="none" xmlns="http://www.w3.org/2000/svg">
<g clip-path="url(#clip0_17_32)">
<path d="M118.93 100.391C118.93 111.836 115.454 123.012 108.962 132.438C102.47 141.864 93.2686 149.096 82.5753 153.177C71.8821 157.258 60.2015 157.995 49.0801 155.291C37.9587 152.586 27.9209 146.568 20.2956 138.032L37.7334 122.454C42.2029 127.457 48.0865 130.985 54.6052 132.57C61.124 134.155 67.9705 133.723 74.2383 131.331C80.5061 128.939 85.8997 124.7 89.7049 119.175C93.5102 113.65 95.5477 107.099 95.5477 100.391H118.93Z" fill="white"/>
<path d="M116.453 116.937C113.101 127.88 106.505 137.548 97.5371 144.66C88.5692 151.772 77.6529 155.992 66.2333 156.762C54.8138 157.533 43.4295 154.817 33.5877 148.974C23.7459 143.131 15.9107 134.437 11.1194 124.043L32.3547 114.254C35.1631 120.347 39.7557 125.443 45.5244 128.867C51.2931 132.292 57.966 133.884 64.6595 133.433C71.353 132.981 77.7515 130.507 83.008 126.339C88.2645 122.17 92.131 116.504 94.0957 110.089L116.453 116.937Z" fill="#C43F3F"/>
<path d="M95.5499 40.5H118.93V102.5H95.5499V40.5Z" fill="#C43F3F"/>
<path d="M95.4303 106.291L120.93 103.791L121.43 110.791L119.93 116.791L95.4303 106.291Z" fill="#FF0000"/>
<path d="M199.43 43.7905C199.43 41.0291 201.669 38.7905 204.43 38.7905H316.43C319.192 38.7905 321.43 41.0291 321.43 43.7905V151.791C321.43 154.552 319.192 156.791 316.43 156.791H204.43C201.669 156.791 199.43 154.552 199.43 151.791V43.7905Z" fill="#C43F3F"/>
<path d="M260.93 80.2906L239.93 38.7906H281.93L260.93 80.2906Z" fill="white"/>
<rect x="239.93" y="73.2906" width="10" height="50" fill="#FF0000"/>
<rect x="271.93" y="73.2906" width="10" height="50" fill="#FF0000"/>
<path d="M127.008 45.5348C127.008 39.7614 133.258 36.153 138.258 39.0397L228.617 91.2087C233.617 94.0955 233.617 101.312 228.617 104.199L138.257 156.369C133.257 159.255 127.007 155.647 127.007 149.873L127.008 45.5348Z" fill="#C43F3F" stroke="#0E1113"/>
<path d="M127.5 102.5L184 66L188.5 68.5L191 70L194.5 72L127.5 117L127.5 109L127.5 102.5Z" fill="white"/>
<path d="M229.93 97.7906L192.43 120.74V74.8409L229.93 97.7906Z" fill="#FF0000"/>
<path d="M130.013 108.219L187.219 70.746" stroke="#FF0000" stroke-width="5" stroke-linecap="round"/>
<path d="M271.93 120.3L277 117L281.93 120.3V123.3H271.93V120.3Z" fill="white"/>
<path d="M239.93 120.3L245 116L249.93 120.3V123.3H239.93V120.3Z" fill="white"/>
</g>
<defs>
<clipPath id="clip0_17_32">
<rect width="343" height="185" fill="white"/>
</clipPath>
</defs>
</svg>
